<?xml version="1.0" standalone="no"?><svg xmlns="http://www.w3.org/2000/svg" viewBox="0 0 1440 320"><path fill="#bc8034" fill-opacity="0.7" d="M0,32L14.1,58.7C28.2,85,56,139,85,133.3C112.9,128,141,64,169,80C197.6,96,226,192,254,224C282.4,256,311,224,339,224C367.1,224,395,256,424,266.7C451.8,277,480,267,508,229.3C536.5,192,565,128,593,101.3C621.2,75,649,85,678,112C705.9,139,734,181,762,176C790.6,171,819,117,847,101.3C875.3,85,904,107,932,101.3C960,96,988,64,1016,69.3C1044.7,75,1073,117,1101,133.3C1129.4,149,1158,139,1186,149.3C1214.1,160,1242,192,1271,208C1298.8,224,1327,224,1355,192C1383.5,160,1412,96,1426,64L1440,32L1440,320L1425.9,320C1411.8,320,1384,320,1355,320C1327.1,320,1299,320,1271,320C1242.4,320,1214,320,1186,320C1157.6,320,1129,320,1101,320C1072.9,320,1045,320,1016,320C988.2,320,960,320,932,320C903.5,320,875,320,847,320C818.8,320,791,320,762,320C734.1,320,706,320,678,320C649.4,320,621,320,593,320C564.7,320,536,320,508,320C480,320,452,320,424,320C395.3,320,367,320,339,320C310.6,320,282,320,254,320C225.9,320,198,320,169,320C141.2,320,113,320,85,320C56.5,320,28,320,14,320L0,320Z"></path></svg>