<?xml version="1.0" standalone="no"?><svg xmlns="http://www.w3.org/2000/svg" viewBox="0 0 1440 320"><path fill="#90323d" fill-opacity="0.75" d="M0,192L10.9,197.3C21.8,203,44,213,65,192C87.3,171,109,117,131,112C152.7,107,175,149,196,160C218.2,171,240,149,262,154.7C283.6,160,305,192,327,197.3C349.1,203,371,181,393,149.3C414.5,117,436,75,458,69.3C480,64,502,96,524,117.3C545.5,139,567,149,589,181.3C610.9,213,633,267,655,277.3C676.4,288,698,256,720,208C741.8,160,764,96,785,112C807.3,128,829,224,851,256C872.7,288,895,256,916,245.3C938.2,235,960,245,982,229.3C1003.6,213,1025,171,1047,144C1069.1,117,1091,107,1113,128C1134.5,149,1156,203,1178,186.7C1200,171,1222,85,1244,74.7C1265.5,64,1287,128,1309,133.3C1330.9,139,1353,85,1375,64C1396.4,43,1418,53,1429,58.7L1440,64L1440,320L1429.1,320C1418.2,320,1396,320,1375,320C1352.7,320,1331,320,1309,320C1287.3,320,1265,320,1244,320C1221.8,320,1200,320,1178,320C1156.4,320,1135,320,1113,320C1090.9,320,1069,320,1047,320C1025.5,320,1004,320,982,320C960,320,938,320,916,320C894.5,320,873,320,851,320C829.1,320,807,320,785,320C763.6,320,742,320,720,320C698.2,320,676,320,655,320C632.7,320,611,320,589,320C567.3,320,545,320,524,320C501.8,320,480,320,458,320C436.4,320,415,320,393,320C370.9,320,349,320,327,320C305.5,320,284,320,262,320C240,320,218,320,196,320C174.5,320,153,320,131,320C109.1,320,87,320,65,320C43.6,320,22,320,11,320L0,320Z"></path></svg>